#!OML:ASF I:\golf\golf\golf 2\Subject 1\2002-09-07\Subject1.ASF
:FULLY-SPECIFIED
:DEGREES
157
root -6.22172 17.8814 3.20127 0.957293 39.3082 -10.6133
lowerback 0.166044 -10.2949 -16.3106
upperback -0.399953 -13.5101 -3.96
thorax 2.19843 -6.71864 4.02612
lowerneck -5.64484 21.359 0.557427
upperneck 13.6236 31.3977 -13.3416
head 7.41173 14.1351 -1.2962
rclavicle 3.89618e-014 -3.18055e-014
rhumerus 9.49467 -14.8347 -80.5508
rradius 101.369
rwrist -17.6137
rhand -60.1229 31.6512
rfingers 7.12502
rthumb -32.2689 4.49957
lclavicle 3.89618e-014 -3.18055e-014
lhumerus 98.618 -51.9081 39.3817
lradius 28.801
lwrist -3.14437
lhand -19.1448 4.31215
lfingers 7.12502
lthumb -172.835 -145.829
rfemur -25.2262 13.1074 27.2733
rtibia 28.8219
rfoot -3.02843 23.5467
rtoes 36.0698
lfemur -0.557378 18.2232 5.61691
ltibia 34.2219
lfoot 1.73494 18.92
ltoes -22.461
158
root -6.21115 17.884 3.24041 1.291 38.9861 -10.1323
lowerback 0.116003 -10.4003 -16.5008
upperback -0.4952 -13.6441 -4.04093
thorax 2.17064 -6.77549 4.01772
lowerneck -5.66081 21.4189 0.421304
upperneck 13.1276 31.3951 -13.4159
head 7.24226 14.1649 -1.33016
rclavicle 3.26007e-014 2.22639e-014
rhumerus 10.7718 -15.0974 -79.8482
rradius 101.802
rwrist -15.7985
rhand -60.2801 32.5866
rfingers 7.12502
rthumb -32.4184 5.46544
lclavicle 3.26007e-014 2.22639e-014
lhumerus 99.2945 -51.5075 39.9971
lradius 29.0964
lwrist -3.30362
lhand -19.6518 4.1005
lfingers 7.12502
lthumb -173.324 -146.025
rfemur -25.1893 13.39 26.9686
rtibia 28.9871
rfoot -3.07788 23.6108
rtoes 36.2522
lfemur -0.333605 17.975 5.33314
ltibia 34.1513
lfoot 1.50124 19.2801
ltoes -19.1964
159
root -6.19942 17.8845 3.27679 1.44317 38.6496 -9.95107
lowerback 0.0812607 -10.4508 -16.4265
upperback -0.60374 -13.7163 -4.10218
thorax 2.05408 -6.79746 3.91997
lowerneck -5.55853 21.4512 0.453843
upperneck 12.6539 31.3433 -13.4945
head 7.08333 14.1833 -1.39661
rclavicle -7.55382e-015 9.54166e-015
rhumerus 11.8944 -15.6052 -79.0867
rradius 102.426
rwrist -14.4144
rhand -60.1941 33.0052
rfingers 7.12502
rthumb -32.3366 5.86736
lclavicle -7.55382e-015 9.54166e-015
lhumerus 100.105 -51.203 40.3963
lradius 29.4038
lwrist -3.33972
lhand -20.1631 3.58783
lfingers 7.12502
lthumb -173.818 -146.522
rfemur -25.1565 13.6526 26.908
rtibia 29.1376
rfoot -3.05164 23.7547
rtoes 36.448
lfemur -0.0943167 17.9159 5.35641
ltibia 34.0554
lfoot 2.61856 19.146
ltoes -20.1415
160
root -6.18526 17.8857 3.31092 1.51387 38.3108 -9.82992
lowerback 0.121268 -10.5309 -16.3141
upperback -0.749391 -13.8515 -4.07969
thorax 1.87984 -6.84771 3.90073
lowerneck -5.3793 21.5248 0.379554
upperneck 12.2309 31.3779 -13.6372
head 6.9317 14.2327 -1.46659
rclavicle -6.0033e-014 -6.99722e-014
rhumerus 13.046 -15.9637 -78.265
rradius 103.07
rwrist -12.9296
rhand -60.2276 32.7982
rfingers 7.12502
rthumb -32.3685 5.6669
lclavicle -6.0033e-014 -6.99722e-014
lhumerus 100.81 -50.7367 40.8276
lradius 29.7732
lwrist -3.18837
lhand -20.6824 3.06052
lfingers 7.12502
lthumb -174.319 -147.036
rfemur -25.0774 13.9306 26.8863
rtibia 29.2673
rfoot -2.98333 23.8815
rtoes 36.7083
lfemur 0.18451 17.9532 5.4338
ltibia 33.9547
lfoot 5.18381 18.1076
ltoes -26.8171
161
root -6.17279 17.8894 3.34345 1.75578 38.009 -9.51807
lowerback 0.149192 -10.6241 -16.3378
upperback -0.894811 -13.9981 -4.0825
thorax 1.73875 -6.9042 3.91514
lowerneck -5.38504 21.5973 0.191966
upperneck 11.8912 31.4244 -13.6761
head 6.80408 14.2741 -1.47524
rclavicle -5.08889e-014 8.5875e-014
rhumerus 14.1964 -16.3244 -77.5003
rradius 103.585
rwrist -11.087
rhand -60.4225 32.4695
rfingers 7.12502
rthumb -32.5539 5.37626
lclavicle -5.08889e-014 8.5875e-014
lhumerus 101.615 -50.216 41.0575
lradius 30.293
lwrist -3.01963
lhand -21.3921 2.81092
lfingers 7.12502
lthumb -175.004 -147.268
rfemur -25.0636 14.1937 26.6799
rtibia 29.3721
rfoot -3.04781 23.9806
rtoes 36.6606
lfemur 0.326152 17.9635 5.30556
ltibia 33.8543
lfoot 7.33652 16.9191
ltoes -31.7735
162
root -6.16327 17.8934 3.37486 2.08453 37.761 -9.22215
lowerback 0.0813141 -10.7488 -16.3229
upperback -1.02678 -14.1633 -4.11195
thorax 1.65309 -6.97305 3.86082
lowerneck -5.5727 21.6844 0.0772717
upperneck 11.7215 31.5103 -13.5999
head 6.75475 14.3201 -1.42521
rclavicle 3.29983e-014 -4.13472e-014
rhumerus 15.3026 -16.7243 -76.7989
rradius 104.093
rwrist -9.50725
rhand -60.434 32.5515
rfingers 7.12502
rthumb -32.5649 5.4605
lclavicle 3.29983e-014 -4.13472e-014
lhumerus 102.074 -49.831 41.6766
lradius 30.6284
lwrist -3.24702
lhand -22.0296 2.13253
lfingers 7.12502
lthumb -175.62 -147.933
rfemur -25.1643 14.3608 26.4687
rtibia 29.4602
rfoot -3.11415 24.1585
rtoes 36.3971
lfemur 0.337785 17.8962 5.15798
ltibia 33.7298
lfoot 8.36398 16.613
ltoes -32.1339
163
root -6.15337 17.8972 3.40762 2.30417 37.5437 -9.06487
lowerback -0.014628 -10.8842 -16.2525
upperback -1.13741 -14.3359 -4.10139
thorax 1.60468 -7.05002 3.8109
lowerneck -5.74529 21.779 0.0729783
upperneck 11.6725 31.6335 -13.564
head 6.76834 14.3745 -1.383
rclavicle -9.50191e-014 -1.90833e-014
rhumerus 16.4298 -17.1015 -75.9969
rradius 104.551
rwrist -8.37468
rhand -60.3641 33.0205
rfingers 7.12502
rthumb -32.4984 5.91583
lclavicle -9.50191e-014 -1.90833e-014
lhumerus 102.4 -49.4777 42.4522
lradius 30.901
lwrist -3.47588
lhand -22.383 1.37916
lfingers 7.12502
lthumb -175.961 -148.679
rfemur -25.2233 14.5776 26.3704
rtibia 29.5315
rfoot -3.26457 24.2713
rtoes 35.7785
lfemur 0.43397 17.7339 5.14202
ltibia 33.5868
lfoot 9.11303 16.3592
ltoes -32.1264
164
root -6.14218 17.9025 3.44021 2.49067 37.3441 -8.90953
lowerback -0.0795911 -10.9582 -16.2593
upperback -1.22466 -14.4309 -4.07384
thorax 1.57223 -7.09096 3.82676
lowerneck -5.84785 21.7828 0.165941
upperneck 11.5851 31.643 -13.6856
head 6.79185 14.374 -1.40986
rclavicle 1.04561e-013 -1.59028e-014
rhumerus 17.5551 -17.6148 -75.1059
rradius 104.949
rwrist -7.12274
rhand -60.6923 32.6878
rfingers 7.12502
rthumb -32.8106 5.64782
lclavicle 1.04561e-013 -1.59028e-014
lhumerus 103.351 -48.9973 42.5202
lradius 31.3151
lwrist -3.39954
lhand -22.5406 1.0221
lfingers 7.12502
lthumb -176.113 -149.034
rfemur -25.2231 14.8117 26.2762
rtibia 29.5703
rfoot -3.46905 24.2967
rtoes 35.0771
lfemur 0.555486 17.5213 5.12294
ltibia 33.4357
lfoot 10.0836 15.6648
ltoes -33.5807
165
root -6.1332 17.9084 3.46863 2.62767 37.1612 -8.79211
lowerback -0.0337657 -10.9792 -16.2562
upperback -1.34863 -14.4843 -4.05824
thorax 1.42592 -7.1029 3.86109
lowerneck -5.67895 21.7495 0.432464
upperneck 11.3302 31.5791 -14.0102
head 6.7726 14.3597 -1.54899
rclavicle 6.12257e-014 2.8625e-014
rhumerus 18.5117 -18.2585 -74.2181
rradius 105.33
rwrist -5.73678
rhand -61.0862 32.9962
rfingers 7.12502
rthumb -33.1853 6.03531
lclavicle 6.12257e-014 2.8625e-014
lhumerus 104.366 -48.6023 42.5364
lradius 31.6589
lwrist -3.36153
lhand -22.4594 0.601303
lfingers 7.12502
lthumb -176.035 -149.456
rfemur -25.1888 14.9318 26.2344
rtibia 29.5653
rfoot -3.4555 24.3785
rtoes 35.0799
lfemur 0.669132 17.287 5.14421
ltibia 33.2745
lfoot 10.6741 15.3697
ltoes -33.7638
166
root -6.12483 17.9157 3.49581 2.73673 36.983 -8.66254
lowerback 0.0539418 -11.0192 -16.2078
upperback -1.52594 -14.5781 -4.06817
thorax 1.189 -7.12657 3.86078
lowerneck -5.26099 21.7969 0.64137
upperneck 10.94 31.5779 -14.2692
head 6.65383 14.405 -1.69812
rclavicle -9.02482e-014 -3.18055e-015
rhumerus 19.278 -18.746 -73.3293
rradius 105.686
rwrist -4.76151
rhand -60.9271 34.3049
rfingers 7.12502
rthumb -33.034 7.31185
lclavicle -9.02482e-014 -3.18055e-015
lhumerus 105.068 -48.2872 42.6828
lradius 31.9802
lwrist -3.30093
lhand -22.5964 0.0220558
lfingers 7.12502
lthumb -176.167 -150.033
rfemur -25.1041 15.0171 26.1868
rtibia 29.535
rfoot -3.30542 24.4894
rtoes 35.4698
lfemur 0.852479 17.065 5.16997
ltibia 33.1072
lfoot 10.8117 15.6643
ltoes -31.9587
167
root -6.1145 17.9236 3.52331 2.93425 36.7926 -8.45119
lowerback 0.0305574 -11.0776 -16.1831
upperback -1.62755 -14.663 -4.0752
thorax 1.09974 -7.15826 3.84069
lowerneck -5.23734 21.8756 0.566824
upperneck 10.6987 31.6407 -14.2838
head 6.56788 14.4537 -1.70488
rclavicle -1.32788e-013 1.90833e-014
rhumerus 20.1827 -19.1331 -72.4476
rradius 106.115
rwrist -4.12165
rhand -60.6453 34.0234
rfingers 7.12502
rthumb -32.766 6.97411
lclavicle -1.32788e-013 1.90833e-014
lhumerus 105.987 -47.7281 42.4612
lradius 32.4684
lwrist -3.04846
lhand -22.8727 -0.42325
lfingers 7.12502
lthumb -176.434 -150.473
rfemur -25.0527 15.1171 26.0407
rtibia 29.4894
rfoot -3.20726 24.6056
rtoes 35.5853
lfemur 1.00622 16.8703 5.07848
ltibia 32.9386
lfoot 11.1727 15.7841
ltoes -30.2911
168
root -6.10536 17.9293 3.54924 3.12799 36.6102 -8.26839
lowerback -0.0451096 -11.0791 -16.1662
upperback -1.58225 -14.644 -4.1003
thorax 1.17632 -7.15578 3.78782
lowerneck -5.67275 21.8644 0.54165
upperneck 10.7256 31.6407 -14.2274
head 6.63272 14.4294 -1.63544
rclavicle 4.17448e-014 8.26944e-014
rhumerus 21.2515 -19.8249 -71.6462
rradius 106.6
rwrist -3.15196
rhand -60.6593 31.8698
rfingers 7.12502
rthumb -32.7793 4.82324
lclavicle 4.17448e-014 8.26944e-014
lhumerus 107.387 -47.0218 41.8591
lradius 33.0561
lwrist -2.59863
lhand -22.9113 -0.732787
lfingers 7.12502
lthumb -176.471 -150.782
rfemur -25.0218 15.1723 25.9238
rtibia 29.4282
rfoot -3.06884 24.7376
rtoes 35.7787
lfemur 1.12317 16.6925 5.00374
ltibia 32.7691
lfoot 11.9864 15.4361
ltoes -30.4563
169
root -6.09647 17.9361 3.57292 3.31078 36.4447 -8.11833
lowerback 0.0308791 -11.4758 -16.232
upperback -1.61293 -15.1965 -3.63118
thorax 1.34518 -7.44514 4.22639
lowerneck -6.83735 22.2351 -1.10301
upperneck 10.6495 32.253 -13.906
head 6.54048 14.6275 -1.23774
rclavicle -1.63799e-013 -7.31528e-014
rhumerus 23.242 -19.259 -71.0482
rradius 106.906
rwrist -1.96748
rhand -60.9536 28.2613
rfingers 7.12502
rthumb -33.0592 1.27358
lclavicle -1.63799e-013 -7.31528e-014
lhumerus 107.418 -45.2725 42.5143
lradius 33.3973
lwrist -2.39377
lhand -22.9745 -1.01201
lfingers 7.12502
lthumb -176.532 -151.06
rfemur -25.0079 15.2136 25.8292
rtibia 29.3744
rfoot -2.87194 24.8589
rtoes 36.2917
lfemur 1.22535 16.6072 4.97331
ltibia 32.5936
lfoot 13.0619 14.7925
ltoes -31.6954
170
root -6.08697 17.9452 3.59327 3.49482 36.2847 -8.00431
lowerback -0.046598 -11.2889 -16.0533
upperback -1.81702 -14.9537 -3.95358
thorax 0.991898 -7.28991 3.87372
lowerneck -5.75551 22.0174 0.150174
upperneck 10.458 31.8125 -14.1674
head 6.50398 14.5216 -1.57827
rclavicle -1.31198e-014 5.08889e-014
rhumerus 23.0744 -20.3933 -70.0604
rradius 107.425
rwrist -0.871574
rhand -60.6526 29.7009
rfingers 7.12502
rthumb -32.7729 2.65306
lclavicle -1.31198e-014 5.08889e-014
lhumerus 108.567 -45.6733 42.0898
lradius 34.0686
lwrist -1.92554
lhand -22.4736 -0.78498
lfingers 7.12502
lthumb -176.049 -150.842
rfemur -25.0432 15.2586 25.7367
rtibia 29.3447
rfoot -2.60544 24.997
rtoes 36.9882
lfemur 1.29094 16.506 4.93527
ltibia 32.4142
lfoot 14.0185 14.2096
ltoes -32.9886
171
root -6.07976 17.9515 3.61383 3.63608 36.0879 -7.88688
lowerback -0.00919458 -11.2305 -16.0174
upperback -1.97878 -14.9044 -4.00925
thorax 0.764168 -7.24372 3.84062
lowerneck -5.55891 21.9629 0.438895
upperneck 10.4949 31.7105 -14.119
head 6.51044 14.4956 -1.62058
rclavicle -9.85972e-014 -2.8625e-014
rhumerus 23.4368 -20.9967 -69.1266
rradius 107.805
rwrist 0.0393412
rhand -60.5377 30.0779
rfingers 7.12502
rthumb -32.6636 3.00734
lclavicle -9.85972e-014 -2.8625e-014
lhumerus 109.012 -45.6673 42.4107
lradius 34.7253
lwrist -1.81106
lhand -22.0894 -0.624856
lfingers 7.12502
lthumb -175.678 -150.689
rfemur -25.0472 15.3355 25.6555
rtibia 29.3323
rfoot -2.37969 25.1054
rtoes 37.4336
lfemur 1.42402 16.3454 4.88905
ltibia 32.2477
lfoot 14.5039 14.0733
ltoes -33.3286
